<?xml version="1.0" encoding="UTF-8"?>
<svg id="Layer_2" data-name="Layer 2" xmlns="http://www.w3.org/2000/svg" viewBox="0 0 765.75 279.32">
  <defs>
    <style>
      .cls-1 {
        fill: #000;
      }

      .cls-1, .cls-2 {
        stroke-width: 0px;
      }

      .cls-2 {
        fill: #e2706d;
      }
    </style>
  </defs>
  <g id="Layer_1-2" data-name="Layer 1">
    <g id="Layer_4" data-name="Layer 4">
      <path class="cls-2" d="M121,268.31s4.78,10.51-23.53,10.99c-28.31.48-47.47-7.99-47.47-7.99l2.87-22.6s-20.45-11.42-21.39-22.25c-.95-10.84-21.79-32.19-23.09-34.27s-15-19.83,1.5-47.52c16.51-27.69,19.71-31.83,19.71-31.83-.45-3.45-4.54-105.43-4.54-105.43,0,0,10.26-17.78,19.94,1.75,9.67,19.53,16,97.16,16,97.16l10.85.54s7.68-25.73,22.49-22.29c14.81,3.44,15.66,14.17,15.66,14.17v8.36s26.54-10.12,28.37,5.75c1.83,15.87,18.4-63.86,18.4-63.86,0,0,13.7-11.02,16.49,8.48,2.79,19.51-14.29,76.4-14.29,76.4,0,0-7.38,62.84-11.35,74.37-3.97,11.53-17.37,35.08-24.12,37.79"/>
      <g>
        <path class="cls-1" d="M141.39,114.81c3.88-9.91,7.22-20.02,9.98-30.3,1.37-5.1,2.6-10.25,3.68-15.42.54-2.59,1.05-5.18,1.52-7.78.44-2.46.71-4.98,1.37-7.39.46-1.69,1.26-3.32,2.92-3.99,1.27-.52,2.91-.37,4.37.17,3.7,1.36,5.3,5.17,5.82,8.85.65,4.67.13,9.61-.31,14.27-.48,5.06-1.25,10.07-2.19,15.06-3.86,20.32-10.58,39.97-14.28,60.33s-3.06,42.34-9.01,62.73c-4.9,16.79-15.57,33.53-33.12,38.96-1.98.61-4,1.06-6.05,1.34-1.11.15-1.71,1.57-1.45,2.55.33,1.19,1.43,1.6,2.55,1.45,9.03-1.25,17.31-5.79,23.95-11.93,7.11-6.57,12.16-14.97,15.64-23.94,7.94-20.43,7.33-42.67,10.49-64.05,3.17-21.38,10.28-41.89,14.61-63.01,1.1-5.34,2-10.71,2.64-16.12.59-5.02,1.1-10.16.87-15.22-.2-4.56-1.29-9.74-4.93-12.86-3.12-2.68-7.7-3.96-11.58-2.19-4.67,2.13-5.19,7.55-5.97,12-.95,5.46-2.06,10.9-3.32,16.29-2.5,10.67-5.62,21.2-9.33,31.51-.92,2.55-1.88,5.08-2.86,7.6-.41,1.04.45,2.27,1.45,2.55,1.17.32,2.14-.4,2.55-1.45h0Z"/>
        <path class="cls-1" d="M73.93,107.41c1.61-6.99,5.03-12.24,11.34-16.14,5.54-3.42,13.44-3.89,18.32.76,5.78,5.5,5.32,14.33,3.5,21.49-1.15,4.52-2.72,8.94-4.15,13.38-1.52,4.69-3.04,9.38-4.55,14.07-1.52,4.68-2.97,9.16-4.45,13.74-1.38,4.27-2.99,8.89-1.77,13.4,1.91,7.08,10.01,9.81,16.6,8.36,7.66-1.68,12.8-8.79,16.54-15.14,4.51-7.65,8.21-15.79,11.06-24.21,1.39-4.13,2.6-8.33,3.54-12.58.94-4.26,1.47-8.88-.32-13.02-1.57-3.62-4.81-6.08-8.46-7.37-4.06-1.45-8.48-1.18-12.64-.32-2.25.46-4.45,1.11-6.64,1.76-2.55.75-1.46,4.75,1.1,3.99,6.93-2.05,16.17-4.6,21.6,1.58,2.39,2.71,2.37,6.82,1.77,10.27-.72,4.14-1.9,8.23-3.16,12.22-2.59,8.19-6.02,16.08-10.24,23.56-1.88,3.32-3.86,6.67-6.42,9.53-2.26,2.52-5.08,4.78-8.28,5.62-1.38.37-2.55.46-4.16.34-1.04-.08-2.82-.53-3.76-.99-.32-.15-.63-.32-.92-.51-.12-.08-.23-.14-.35-.23,0,0-.55-.39-.26-.17-.28-.21-.53-.44-.78-.69-.1-.1-.19-.19-.29-.3-.05-.06-.52-.63-.34-.38-.99-1.32-1.42-2.66-1.46-4.44-.05-2.08.47-4.1,1.06-6.08.68-2.25,1.43-4.48,2.15-6.71,1.46-4.53,2.93-9.05,4.39-13.58,1.46-4.53,2.93-9.05,4.39-13.58,1.46-4.53,2.92-8.65,3.81-13.11,1.55-7.77.97-16.76-4.99-22.65-5.39-5.33-13.82-5.91-20.58-3.07-7.19,3.02-11.94,9.68-14.6,16.8-.65,1.73-1.17,1.5-1.58,3.3-.25,1.09-.07,1.71,1.04,2.01,1.05.29,2,0,2,0l1-1-.07.09Z"/>
        <path class="cls-1" d="M45.56,144.16c1.04,1.88,2.97,2.57,5.01,2.73,1.81.14,3.88.1,5.62-.38,4.42-1.21,8.8-2.54,13.02-4.35,1.99-.86,3.94-1.83,5.79-2.95s3.32-2.64,5.17-3.75c.83-.5,1.62-.99,2.39-1.61.82-.66,1.62-1.35,2.4-2.06,1.46-1.33,2.84-2.76,4.09-4.3,4.69-5.77,8.76-14.53,5.33-21.89-.7-1.52-1.86-2.83-3.28-3.72-.74-.47-1.61-.82-2.46-1.03-.45-.11-1.02-.24-1.48-.24-.79,0-1.67.46-2.42.71-4.66,1.54-9.4,2.79-14.2,3.76-10.68,2.17-21.6,2.88-32.49,2.46-1.12-.04-2.07.98-2.07,2.07,0,1.16.95,2.03,2.07,2.07,13.09.5,26.27-.66,38.99-3.84,3.6-.9,7.17-1.96,10.67-3.17h-1.1c.5.07.99.17,1.47.32.34.1.54.22,1.02.51.08.06.17.11.25.17-.26-.19,0,.01.05.05.14.13.29.27.43.41.07.07.13.14.2.22.22.25-.15-.23.04.04.14.19.26.38.38.58s.22.41.32.61.01,0,0-.03c.04.1.08.19.11.28.16.46.3.92.39,1.39.05.24.1.48.13.72-.04-.31.01.21.02.3.04.5.06,1.01.04,1.51-.04,2.06-.63,4.31-1.53,6.48-.85,2.04-2.05,4.02-3.4,5.78-1.35,1.76-3.06,3.52-4.79,5.08-.85.76-1.75,1.69-2.72,2.28-.15.09-.83.41-1.16.61-.56.34-1.1.72-1.63,1.12-1.04.78-1.96,1.67-3.06,2.35-1.1.68-2.26,1.31-3.42,1.9-2.31,1.15-4.71,2.08-7.16,2.9-1.41.48-2.84.91-4.26,1.32-1.28.37-2.79.97-4.03,1.09s-2.43.12-3.61.06c-.11,0-.22-.01-.33-.03.22.03.02,0-.09-.02-.26-.06-.53-.11-.78-.22.39.17-.34-.19-.13-.1s-.14-.23-.04-.03-.19-.31-.17-.3c-1.29-2.33-4.87-.24-3.57,2.09h.02Z"/>
        <path class="cls-1" d="M38,108.31c-6.46-.07-11.57,6.77-14.84,11.52-4.33,6.28-8.22,12.82-11.8,19.57-6.71,12.66-13.58,26.9-10.68,41.62,2.52,12.86,12.3,22.2,19.53,32.54,3.7,5.28,6.57,11.08,9.93,16.58s7.48,10.91,12.82,14.91c10.49,7.84,24.18,9.89,36.95,10.11,1.55.03,3.1.02,4.66,0,2.66-.04,2.67-4.18,0-4.14-12.02.18-24.8-.79-35.46-6.88-5.3-3.03-9.54-7.3-12.98-12.31s-6.32-10.71-9.55-16.02c-3.24-5.31-7.12-10.02-10.87-14.91-3.75-4.88-7.29-9.77-9.44-15.4-2.34-6.13-2.66-12.66-1.39-19.07,1.36-6.85,4.15-13.31,7.26-19.53,3.11-6.22,6.7-12.78,10.55-18.87,1.82-2.88,3.7-5.73,5.7-8.48,1.43-1.97,3.2-4.09,5.37-5.28.99-.54,5.09-2.97,6.24-2.96,2.66.03-.34.03-3,0l4-1-3-2Z"/>
        <path class="cls-1" d="M63.99,109.47c-2.66-16.15-5.28-32.3-7.87-48.45-1.29-8.02-2.57-16.04-3.84-24.07-.65-4.07-1.29-8.14-1.93-12.21-.59-3.71-1.05-7.48-2.15-11.09-1.95-6.4-6.55-12.73-13.73-13.31-3.05-.24-6.29.79-8.5,2.94-2.61,2.54-3.16,6.25-3.18,9.73-.05,8.1.24,16.21.41,24.31.16,8.19.34,16.4.55,24.59.41,16.33.9,32.67,1.48,49,.07,2.01.14,4.01.22,6.02.1,2.66,4.24,2.67,4.14,0-.59-15.87-1.09-31.75-1.51-47.62s-.76-31.76-1.02-47.64c-.03-1.95-.06-3.9-.09-5.85-.03-1.75-.11-3.52.08-5.26.14-1.3.61-2.86,1.3-3.76.34-.43.81-.88,1.11-1.08.56-.39,1.09-.66,1.58-.83,2.43-.83,4.84-.52,7.14.94,2.3,1.46,4.15,4.04,5.24,6.64,1.37,3.28,1.92,6.85,2.47,10.34.61,3.89,1.23,7.78,1.84,11.66,1.23,7.8,2.48,15.6,3.72,23.39,2.5,15.65,5.04,31.29,7.6,46.93.32,1.92.63,2.58.95,4.5.18,1.1,2.01.27,3,0,1.17-.32,2-2,.99.16h0Z"/>
        <path class="cls-1" d="M68.08,140.83c0,4.08,0,12.17.02,16.26,0,3.69.33,7.42,2.88,10.31,2.31,2.61,5.96,4.03,9.22,5.01,3.7,1.12,7.77,1.41,11.35-.28,3.35-1.59,3.99-3.1,3.77-6.91-.06-1.12-.9-2.07-2.07-2.07-1.07,0-1.32,1.05-1.26,2.18.13,2.26-.15,2.03-2.3,3.12-2.48,1.26-5.73.77-8.38-.03-2.66-.8-5.37-1.78-7.22-3.75s-1.84-5.09-1.84-7.71c0-4.04-.01-12.08-.02-16.11,0-2.66-4.15,1.33-4.14,4h0v-4Z"/>
        <path class="cls-1" d="M96.42,201.74c-1.83-4.6-3.75-9.17-5.75-13.69-1.81-4.1-3.61-8.27-6.17-11.97s-5.9-6.69-9.42-9.51c-3.69-2.96-7.45-5.81-11.25-8.61-1.65-1.21-3.01-2.64-3.81-4.55-.86-2.06-1.18-4.35-1.48-6.54-.14-1.11-.85-2.07-2.07-2.07-1.01,0-2.21.95-2.07,2.07.57,4.3,1.26,8.74,4.3,12.08,1.51,1.66,3.46,2.88,5.26,4.19,1.8,1.31,3.72,2.81,5.55,4.26,3.52,2.79,7.17,5.55,10.09,9.01,2.91,3.46,4.68,7.45,6.48,11.42,2.23,4.95,4.35,9.96,6.36,15.01.41,1.03,1.39,1.77,2.55,1.45.99-.27,1.86-1.5,1.45-2.55h0Z"/>
        <path class="cls-1" d="M50.87,250.71c-.4,6.12-.8,12.23-1.2,18.35-.08,1.12,1,2.07,2.07,2.07,1.18,0,1.99-.95,2.07-2.07l1.2-18.35c.08-1.12-1-2.07-2.07-2.07-1.18,0-1.99.95-2.07,2.07h0Z"/>
        <path class="cls-1" d="M120.92,267.48c.12.67.23,1.33.34,2,.17,1,1.35,1.62,2.27,1.48,1.01-.15,1.78-.98,1.79-2.03.11-6.97.21-13.93.32-20.9.04-2.66-4.1-2.66-4.14,0-.11,6.97-.21,13.93-.32,20.9l4.06-.55c-.12-.67-.23-1.33-.34-2-.19-1.1-1.55-1.72-2.55-1.45-1.17.32-1.63,1.44-1.45,2.55h0Z"/>
      </g>
    </g>
    <g>
      <path class="cls-1" d="M206.66,45.58c0-6.33,3.3-9.5,9.9-9.5h31.9c5.67,0,8.5,2.53,8.5,7.6,0,1.2-.22,2.6-.65,4.2-.43,1.6-.92,2.87-1.45,3.8h-31.5v11.6h22.5c5.67,0,8.5,2.53,8.5,7.6,0,1.2-.22,2.6-.65,4.2-.43,1.6-.92,2.87-1.45,3.8h-28.9v25.8h-16.7v-59.1Z"/>
      <path class="cls-1" d="M250.46,104.68c1.4-3.67,3.08-7.95,5.05-12.85,1.97-4.9,4.12-10.17,6.45-15.8,2.33-5.63,4.75-11.35,7.25-17.15,2.5-5.8,4.95-11.43,7.35-16.9,1.2-2.73,2.72-4.7,4.55-5.9,1.83-1.2,4.28-1.8,7.35-1.8.93,0,2.05.17,3.35.5,1.3.33,2.53.72,3.7,1.15,1.17.43,1.95.88,2.35,1.35.67,1.2,1.7,3.32,3.1,6.35,1.4,3.03,3.02,6.63,4.85,10.8,1.83,4.17,3.75,8.62,5.75,13.35,2,4.73,3.97,9.43,5.9,14.1,1.93,4.67,3.67,8.98,5.2,12.95,1.53,3.97,2.77,7.25,3.7,9.85h-18.4c-.8-2.33-1.65-4.68-2.55-7.05-.9-2.37-1.92-4.95-3.05-7.75h-29.1c-.87,2-1.72,4.13-2.55,6.4-.83,2.27-1.82,5.07-2.95,8.4h-17.3ZM285.46,58.78c-1.07,2.67-2.15,5.43-3.25,8.3-1.1,2.87-2.08,5.43-2.95,7.7h17.4c-.6-1.67-1.32-3.57-2.15-5.7-.83-2.13-1.67-4.28-2.5-6.45-.83-2.17-1.62-4.15-2.35-5.95-.73-1.8-1.3-3.2-1.7-4.2-.6,1.53-1.43,3.63-2.5,6.3Z"/>
      <path class="cls-1" d="M360.31,66.98c2.9-7.2,5.88-15,8.95-23.4,1.8-5,5.03-7.5,9.7-7.5,1.93,0,3.85.33,5.75,1,1.9.67,3.35,1.5,4.35,2.5-.67,1.73-1.65,4.22-2.95,7.45-1.3,3.23-2.83,6.92-4.6,11.05-1.77,4.13-3.6,8.45-5.5,12.95s-3.8,8.9-5.7,13.2c-1.9,4.3-3.63,8.22-5.2,11.75-1.57,3.53-2.88,6.43-3.95,8.7h-17.3c-1.4-2.67-3-5.95-4.8-9.85-1.8-3.9-3.72-8.12-5.75-12.65-2.03-4.53-4.07-9.15-6.1-13.85-2.03-4.7-3.95-9.15-5.75-13.35-1.47-3.33-2.43-5.88-2.9-7.65-.47-1.77-.7-3.22-.7-4.35,0-2.47.75-4.23,2.25-5.3,1.5-1.07,3.48-1.6,5.95-1.6,1.53,0,3.03.17,4.5.5,1.47.33,2.63.77,3.5,1.3.87,2.47,1.98,5.5,3.35,9.1,1.37,3.6,2.88,7.53,4.55,11.8,1.67,4.27,3.42,8.68,5.25,13.25,1.83,4.57,3.68,9.05,5.55,13.45,2.13-5.13,4.65-11.3,7.55-18.5Z"/>
      <path class="cls-1" d="M427.66,106.48c-5.2,0-10.05-.92-14.55-2.75-4.5-1.83-8.43-4.4-11.8-7.7-3.37-3.3-6-7.13-7.9-11.5-1.9-4.37-2.85-9.08-2.85-14.15s.95-9.78,2.85-14.15c1.9-4.37,4.53-8.2,7.9-11.5,3.37-3.3,7.3-5.87,11.8-7.7,4.5-1.83,9.35-2.75,14.55-2.75s10.05.92,14.55,2.75c4.5,1.83,8.43,4.4,11.8,7.7,3.37,3.3,6,7.13,7.9,11.5,1.9,4.37,2.85,9.08,2.85,14.15s-.95,9.78-2.85,14.15c-1.9,4.37-4.54,8.2-7.9,11.5-3.37,3.3-7.3,5.87-11.8,7.7-4.5,1.83-9.35,2.75-14.55,2.75ZM447.26,70.38c0-3.93-.83-7.43-2.5-10.5-1.67-3.07-3.98-5.5-6.95-7.3-2.97-1.8-6.35-2.7-10.15-2.7s-7.17.9-10.1,2.7c-2.93,1.8-5.25,4.23-6.95,7.3-1.7,3.07-2.55,6.57-2.55,10.5s.85,7.35,2.55,10.45c1.7,3.1,4.02,5.55,6.95,7.35,2.93,1.8,6.3,2.7,10.1,2.7s7.18-.9,10.15-2.7c2.97-1.8,5.28-4.25,6.95-7.35,1.67-3.1,2.5-6.58,2.5-10.45Z"/>
      <path class="cls-1" d="M537.46,74.28c0,10.2-2.77,18.12-8.3,23.75-5.53,5.63-13.33,8.45-23.4,8.45s-17.87-2.82-23.4-8.45c-5.53-5.63-8.3-13.55-8.3-23.75v-31.1c0-4.73,2.9-7.1,8.7-7.1,1.4,0,2.77.13,4.1.4,1.33.27,2.63.67,3.9,1.2v34.9c0,6.47,1.18,11.17,3.55,14.1,2.37,2.93,6.18,4.4,11.45,4.4s9.08-1.47,11.45-4.4c2.37-2.93,3.55-7.63,3.55-14.1v-29.4c0-4.73,2.9-7.1,8.7-7.1,1.4,0,2.77.13,4.1.4,1.33.27,2.63.67,3.9,1.2v36.6Z"/>
      <path class="cls-1" d="M549.75,44.98c0-4.93,2.3-7.87,6.9-8.8,2-.4,4.45-.68,7.35-.85,2.9-.17,6.42-.25,10.55-.25,10.07,0,17.82,2.05,23.25,6.15,5.43,4.1,8.15,9.92,8.15,17.45,0,8.8-3.57,15.1-10.7,18.9,1.4,2.2,2.95,4.83,4.65,7.9,1.7,3.07,3.42,6.27,5.15,9.6,1.73,3.33,3.3,6.53,4.7,9.6h-19.1c-.6-1.53-1.43-3.42-2.5-5.65-1.07-2.23-2.2-4.52-3.4-6.85-1.2-2.33-2.32-4.45-3.35-6.35-1.04-1.9-1.85-3.28-2.45-4.15-.67.07-1.43.12-2.3.15-.87.03-2.07.05-3.6.05-.67,0-1.52-.02-2.55-.05-1.03-.03-1.98-.08-2.85-.15-.87-.07-1.4-.13-1.6-.2v23.2h-16.3v-59.7ZM588.85,58.78c0-6.33-4.9-9.5-14.7-9.5-1.47,0-2.98.03-4.55.1-1.57.07-2.75.17-3.55.3v17.6c.73.13,1.83.25,3.3.35,1.47.1,3.3.15,5.5.15,9.33,0,14-3,14-9Z"/>
      <path class="cls-1" d="M634.45,104.68h-16.7v-61.5c0-4.73,2.9-7.1,8.7-7.1,1.4,0,2.77.13,4.1.4,1.33.27,2.63.67,3.9,1.2v67Z"/>
      <path class="cls-1" d="M665.45,51.68h-16c-2.73,0-4.83-.67-6.3-2-1.47-1.33-2.2-3.2-2.2-5.6,0-1.33.2-2.73.6-4.2.4-1.47.9-2.73,1.5-3.8h55.1c2.73,0,4.83.67,6.3,2,1.47,1.33,2.2,3.2,2.2,5.6,0,1.27-.2,2.63-.6,4.1-.4,1.47-.9,2.77-1.5,3.9h-22.4v53h-16.7v-53Z"/>
      <path class="cls-1" d="M713.15,45.58c0-6.33,3.3-9.5,9.9-9.5h34.2c2.73,0,4.83.67,6.3,2,1.46,1.33,2.2,3.2,2.2,5.6,0,1.27-.2,2.63-.6,4.1-.4,1.47-.9,2.77-1.5,3.9h-33.8v10.7h26.1c2.93,0,5.08.68,6.45,2.05,1.37,1.37,2.05,3.22,2.05,5.55,0,1.47-.22,2.93-.65,4.4-.43,1.47-.92,2.67-1.45,3.6h-32.5v11.1h35.4v15.6h-52.1v-59.1Z"/>
      <path class="cls-1" d="M270.05,194.68c1.4-3.67,3.08-7.95,5.05-12.85,1.97-4.9,4.12-10.17,6.45-15.8,2.33-5.63,4.75-11.35,7.25-17.15,2.5-5.8,4.95-11.43,7.35-16.9,1.2-2.73,2.72-4.7,4.55-5.9,1.83-1.2,4.28-1.8,7.35-1.8.93,0,2.05.17,3.35.5,1.3.33,2.53.72,3.7,1.15,1.17.43,1.95.88,2.35,1.35.67,1.2,1.7,3.32,3.1,6.35,1.4,3.03,3.02,6.63,4.85,10.8,1.83,4.17,3.75,8.62,5.75,13.35,2,4.73,3.97,9.43,5.9,14.1,1.93,4.67,3.67,8.98,5.2,12.95,1.53,3.97,2.77,7.25,3.7,9.85h-18.4c-.8-2.33-1.65-4.68-2.55-7.05-.9-2.37-1.92-4.95-3.05-7.75h-29.1c-.87,2-1.72,4.13-2.55,6.4-.83,2.27-1.82,5.07-2.95,8.4h-17.3ZM305.05,148.78c-1.07,2.67-2.15,5.43-3.25,8.3-1.1,2.87-2.08,5.43-2.95,7.7h17.4c-.6-1.67-1.32-3.57-2.15-5.7-.83-2.13-1.67-4.28-2.5-6.45-.83-2.17-1.62-4.15-2.35-5.95-.73-1.8-1.3-3.2-1.7-4.2-.6,1.53-1.43,3.63-2.5,6.3Z"/>
      <path class="cls-1" d="M352.45,133.18c0-4.73,2.9-7.1,8.7-7.1,1.4,0,2.77.13,4.1.4,1.33.27,2.63.67,3.9,1.2v51.4h31.7v15.6h-48.4v-61.5Z"/>
      <path class="cls-1" d="M407.35,134.98c0-2.47.53-4.43,1.6-5.9,1.07-1.47,2.83-2.43,5.3-2.9,1.4-.33,3.52-.6,6.35-.8,2.83-.2,5.78-.3,8.85-.3,11.93,0,20.6,1.55,26,4.65,5.4,3.1,8.1,7.98,8.1,14.65,0,3.47-.7,6.52-2.1,9.15-1.4,2.63-3.37,4.72-5.9,6.25,3.2,1.27,5.7,3.28,7.5,6.05,1.8,2.77,2.7,6.22,2.7,10.35,0,6.67-2.63,11.58-7.9,14.75-5.27,3.17-13.73,4.75-25.4,4.75-1.8,0-3.93-.03-6.4-.1-2.47-.07-4.95-.15-7.45-.25-2.5-.1-4.77-.22-6.8-.35-2.03-.13-3.52-.23-4.45-.3v-59.7ZM443.8,141.18c-1.97-1.2-5.12-1.8-9.45-1.8-1,0-2.2.03-3.6.1-1.4.07-2.75.13-4.05.2-1.3.07-2.32.17-3.05.3v13h14.5c2.73,0,4.85-.55,6.35-1.65s2.25-2.72,2.25-4.85c0-2.33-.98-4.1-2.95-5.3ZM423.65,167.48v13.2c.67.07,1.72.15,3.15.25,1.43.1,2.95.18,4.55.25,1.6.07,3,.1,4.2.1,4.93,0,8.35-.57,10.25-1.7,1.9-1.13,2.85-2.93,2.85-5.4,0-4.47-3.07-6.7-9.2-6.7h-15.8Z"/>
      <path class="cls-1" d="M537.45,164.28c0,10.2-2.77,18.12-8.3,23.75-5.53,5.63-13.33,8.45-23.4,8.45s-17.87-2.82-23.4-8.45c-5.53-5.63-8.3-13.55-8.3-23.75v-31.1c0-4.73,2.9-7.1,8.7-7.1,1.4,0,2.77.13,4.1.4,1.33.27,2.63.67,3.9,1.2v34.9c0,6.47,1.18,11.17,3.55,14.1,2.37,2.93,6.18,4.4,11.45,4.4s9.08-1.47,11.45-4.4c2.37-2.93,3.55-7.63,3.55-14.1v-29.4c0-4.73,2.9-7.1,8.7-7.1,1.4,0,2.77.13,4.1.4,1.33.27,2.63.67,3.9,1.2v36.6Z"/>
      <path class="cls-1" d="M626.65,194.68h-16.8l-2.3-41c-1.47,2.93-3.02,6.12-4.65,9.55-1.63,3.43-3.2,6.8-4.7,10.1-1.5,3.3-2.85,6.32-4.05,9.05h-12.4c-.87-2.07-2.03-4.68-3.5-7.85-1.47-3.17-3.05-6.57-4.75-10.2-1.7-3.63-3.42-7.15-5.15-10.55l-2.2,40.9h-16.9l3.4-60c.13-2.87,1.07-5.02,2.8-6.45,1.73-1.43,4.07-2.15,7-2.15,2,0,3.95.28,5.85.85,1.9.57,3.35,1.28,4.35,2.15,1.93,3.8,4.17,8.28,6.7,13.45,2.53,5.17,5.5,11.32,8.9,18.45,2-4.33,4.13-8.82,6.4-13.45,2.27-4.63,4.57-9.35,6.9-14.15,1.27-2.53,2.8-4.38,4.6-5.55,1.8-1.17,3.93-1.75,6.4-1.75,1.93,0,3.92.27,5.95.8,2.03.53,3.48,1.17,4.35,1.9l3.8,65.9Z"/>
      <path class="cls-1" d="M637.05,146.48c0-6.93,2.52-12.37,7.55-16.3,5.03-3.93,11.95-5.9,20.75-5.9,4.47,0,8.78.43,12.95,1.3,4.17.87,7.48,2.03,9.95,3.5,3.2,1.93,4.8,4.23,4.8,6.9,0,1.67-.55,3.47-1.65,5.4-1.1,1.93-2.42,3.4-3.95,4.4-1.2-1.27-2.98-2.42-5.35-3.45-2.37-1.03-5-1.87-7.9-2.5-2.9-.63-5.78-.95-8.65-.95-7.67,0-11.5,2.2-11.5,6.6,0,1.53.67,2.75,2,3.65,1.33.9,3.63,1.65,6.9,2.25l10,1.8c8.47,1.47,14.48,3.9,18.05,7.3,3.57,3.4,5.35,7.97,5.35,13.7,0,7-2.65,12.47-7.95,16.4s-12.65,5.9-22.05,5.9c-2.53,0-5.37-.23-8.5-.7-3.13-.47-6.22-1.1-9.25-1.9-3.04-.8-5.75-1.68-8.15-2.65-2.4-.97-4.17-1.95-5.3-2.95l6.9-13.2c1.6,1.07,3.82,2.1,6.65,3.1,2.83,1,5.87,1.8,9.1,2.4,3.23.6,6.15.9,8.75.9,4.27,0,7.37-.5,9.3-1.5,1.93-1,2.9-2.63,2.9-4.9,0-1.73-.72-3.08-2.15-4.05-1.43-.97-3.85-1.75-7.25-2.35l-10-1.8c-14.87-2.67-22.3-9.47-22.3-20.4Z"/>
    </g>
    <g>
      <path class="cls-1" d="M247.11,252.07c.82-2.16,1.74-4.52,2.77-7.07,1.03-2.56,2.12-5.18,3.28-7.87,1.15-2.69,2.3-5.3,3.46-7.85.41-.91.89-1.57,1.44-1.96.55-.4,1.26-.59,2.12-.59.38,0,.86.09,1.44.27.58.18.95.35,1.12.52.26.43.64,1.17,1.12,2.21.48,1.04,1.04,2.29,1.69,3.74s1.32,3.01,2.02,4.68c.7,1.67,1.39,3.35,2.09,5.04.7,1.69,1.35,3.31,1.96,4.84.61,1.54,1.12,2.88,1.53,4.03h-4.75c-.19-.53-.44-1.19-.76-2-.31-.8-.62-1.62-.92-2.45-.3-.83-.56-1.49-.77-2h-12.06c-.38.96-.78,1.97-1.19,3.04-.41,1.07-.83,2.2-1.26,3.4h-4.32ZM258.55,234.27c-.53,1.21-1.07,2.47-1.62,3.78-.55,1.31-1.07,2.57-1.55,3.8h9.11c-.36-.94-.76-1.94-1.19-3.01-.43-1.07-.86-2.12-1.28-3.15-.42-1.03-.81-1.96-1.17-2.77-.36-.82-.65-1.43-.86-1.84-.43.91-.91,1.97-1.44,3.19Z"/>
      <path class="cls-1" d="M284.2,238.1c.8-1.44,1.96-2.57,3.47-3.38,1.51-.82,3.31-1.22,5.4-1.22,1.2,0,2.29.14,3.26.41.97.28,1.72.65,2.25,1.13.53.46.79.96.79,1.51,0,.38-.13.77-.38,1.17-.25.4-.59.76-1.03,1.1-.6-.55-1.33-.98-2.18-1.28-.85-.3-1.76-.45-2.72-.45-1.75,0-3.16.52-4.21,1.57s-1.58,2.49-1.58,4.34.53,3.27,1.6,4.34c1.07,1.07,2.51,1.6,4.34,1.6,1.63,0,3.12-.41,4.46-1.22l1.73,3.06c-1.99,1.2-4.21,1.8-6.66,1.8-1.94,0-3.65-.39-5.11-1.17-1.46-.78-2.6-1.88-3.42-3.29s-1.22-3.08-1.22-5,.4-3.56,1.21-5Z"/>
      <path class="cls-1" d="M301.77,247.89c-.88-1.44-1.31-3.06-1.31-4.86s.44-3.42,1.31-4.86c.88-1.44,2.06-2.58,3.55-3.42,1.49-.84,3.17-1.26,5.04-1.26s3.56.42,5.06,1.26c1.5.84,2.68,1.98,3.55,3.42.86,1.44,1.3,3.06,1.3,4.86s-.43,3.42-1.3,4.86c-.86,1.44-2.05,2.58-3.55,3.42-1.5.84-3.19,1.26-5.06,1.26s-3.55-.42-5.04-1.26c-1.49-.84-2.67-1.98-3.55-3.42ZM315.25,246.11c.48-.9.72-1.93.72-3.08s-.24-2.18-.72-3.08c-.48-.9-1.15-1.6-2-2.11-.85-.5-1.82-.76-2.9-.76s-2.05.25-2.9.76c-.85.5-1.52,1.21-2,2.11-.48.9-.72,1.93-.72,3.08s.24,2.18.72,3.08c.48.9,1.15,1.6,2,2.11.85.5,1.82.76,2.9.76s2.05-.25,2.9-.76c.85-.5,1.52-1.21,2-2.11Z"/>
      <path class="cls-1" d="M327.46,252.07h-4.1v-24.62c0-.62.2-1.1.61-1.42.41-.32.94-.49,1.58-.49.34,0,.68.04,1.04.11.36.07.65.17.86.29v26.14Z"/>
      <path class="cls-1" d="M335.38,252.07h-4.1v-24.62c0-.62.2-1.1.61-1.42.41-.32.94-.49,1.58-.49.34,0,.68.04,1.04.11.36.07.65.17.86.29v26.14Z"/>
      <path class="cls-1" d="M355.46,252c-1.25.17-2.6.31-4.05.41-1.45.11-2.77.16-3.94.16-2.98,0-5.25-.47-6.82-1.4-1.57-.94-2.36-2.46-2.36-4.57,0-1.87.68-3.31,2.03-4.32,1.36-1.01,3.56-1.51,6.61-1.51.7,0,1.48.02,2.34.07.86.05,1.56.11,2.09.18,0-1.46-.45-2.53-1.35-3.2-.9-.67-2.24-1.01-4.01-1.01-1.13,0-2.15.12-3.08.36-.92.24-1.59.54-2,.9-.26-.19-.49-.46-.68-.81-.19-.35-.29-.71-.29-1.1,0-.82.5-1.46,1.51-1.94,1.01-.48,2.5-.72,4.46-.72,3.14,0,5.52.64,7.13,1.93,1.61,1.28,2.41,3.2,2.41,5.74v10.84ZM343.62,248.92c.82.44,2.1.67,3.85.67.72,0,1.45-.03,2.2-.09.74-.06,1.32-.14,1.73-.23v-5.26c-.53-.12-1.22-.21-2.07-.27-.85-.06-1.6-.09-2.25-.09-1.75,0-2.97.26-3.65.77-.68.52-1.03,1.28-1.03,2.29s.41,1.77,1.22,2.21Z"/>
      <path class="cls-1" d="M358.92,227.44c0-.62.2-1.1.61-1.42.41-.32.94-.49,1.58-.49.34,0,.68.04,1.04.11.36.07.65.17.86.29v10.33c.67-.86,1.53-1.54,2.57-2.03s2.23-.74,3.55-.74c1.73,0,3.29.41,4.68,1.24,1.39.83,2.5,1.96,3.31,3.38.82,1.43,1.22,3.07,1.22,4.91s-.42,3.49-1.26,4.93c-.84,1.44-2,2.57-3.49,3.38-1.49.82-3.22,1.22-5.18,1.22s-3.62-.41-5.04-1.24-2.51-2.02-3.29-3.58c-.78-1.56-1.17-3.42-1.17-5.58v-14.72ZM372.56,238.75c-1.03-1.08-2.36-1.62-4-1.62s-2.97.54-4.01,1.62-1.57,2.5-1.57,4.25.52,3.17,1.57,4.25,2.38,1.62,4.01,1.62,2.96-.54,4-1.62c1.03-1.08,1.55-2.5,1.55-4.25s-.52-3.17-1.55-4.25Z"/>
      <path class="cls-1" d="M382.05,247.89c-.88-1.44-1.31-3.06-1.31-4.86s.44-3.42,1.31-4.86c.88-1.44,2.06-2.58,3.55-3.42,1.49-.84,3.17-1.26,5.04-1.26s3.56.42,5.06,1.26c1.5.84,2.68,1.98,3.55,3.42.86,1.44,1.3,3.06,1.3,4.86s-.43,3.42-1.3,4.86c-.86,1.44-2.05,2.58-3.55,3.42-1.5.84-3.19,1.26-5.06,1.26s-3.55-.42-5.04-1.26c-1.49-.84-2.67-1.98-3.55-3.42ZM395.53,246.11c.48-.9.72-1.93.72-3.08s-.24-2.18-.72-3.08c-.48-.9-1.15-1.6-2-2.11-.85-.5-1.82-.76-2.9-.76s-2.05.25-2.9.76c-.85.5-1.52,1.21-2,2.11-.48.9-.72,1.93-.72,3.08s.24,2.18.72,3.08c.48.9,1.15,1.6,2,2.11.85.5,1.82.76,2.9.76s2.05-.25,2.9-.76c.85-.5,1.52-1.21,2-2.11Z"/>
      <path class="cls-1" d="M403.63,240.44c0-2.18.68-3.89,2.03-5.11,1.36-1.22,3.23-1.84,5.63-1.84,1.63,0,2.89.24,3.78.72.89.48,1.33,1.09,1.33,1.84,0,.38-.1.77-.31,1.15-.2.38-.4.64-.59.76-1.06-.53-2.24-.79-3.56-.79-2.81,0-4.21,1.49-4.21,4.46v10.44h-4.1v-11.63Z"/>
      <path class="cls-1" d="M434.05,252c-1.25.17-2.6.31-4.05.41-1.45.11-2.77.16-3.94.16-2.98,0-5.25-.47-6.82-1.4-1.57-.94-2.36-2.46-2.36-4.57,0-1.87.68-3.31,2.03-4.32,1.36-1.01,3.56-1.51,6.61-1.51.7,0,1.48.02,2.34.07.86.05,1.56.11,2.09.18,0-1.46-.45-2.53-1.35-3.2-.9-.67-2.24-1.01-4.01-1.01-1.13,0-2.15.12-3.08.36-.92.24-1.59.54-2,.9-.26-.19-.49-.46-.68-.81-.19-.35-.29-.71-.29-1.1,0-.82.5-1.46,1.51-1.94,1.01-.48,2.5-.72,4.46-.72,3.14,0,5.52.64,7.13,1.93,1.61,1.28,2.41,3.2,2.41,5.74v10.84ZM422.21,248.92c.82.44,2.1.67,3.85.67.72,0,1.45-.03,2.2-.09.74-.06,1.32-.14,1.73-.23v-5.26c-.53-.12-1.22-.21-2.07-.27-.85-.06-1.6-.09-2.25-.09-1.75,0-2.97.26-3.65.77-.68.52-1.03,1.28-1.03,2.29s.41,1.77,1.22,2.21Z"/>
      <path class="cls-1" d="M437.9,230.79c0-.62.2-1.1.61-1.42s.94-.49,1.58-.49c.34,0,.68.04,1.04.11s.65.17.86.29v4.72h5.22c1.44,0,2.16.64,2.16,1.91,0,.7-.16,1.32-.47,1.87h-6.91v7.99c0,1.01.26,1.79.79,2.34.53.55,1.31.83,2.34.83.58,0,1.17-.08,1.78-.25.61-.17,1.13-.4,1.57-.68l1.66,2.74c-.62.53-1.47.97-2.54,1.31-1.07.35-2.17.52-3.29.52-1.94,0-3.5-.53-4.66-1.6-1.17-1.07-1.75-2.51-1.75-4.34v-15.84Z"/>
      <path class="cls-1" d="M452.39,230.22c-.47-.48-.7-1.08-.7-1.8s.23-1.32.7-1.8c.47-.48,1.06-.72,1.78-.72s1.31.24,1.78.72c.47.48.7,1.08.7,1.8s-.23,1.32-.7,1.8c-.47.48-1.06.72-1.78.72s-1.31-.24-1.78-.72ZM456.23,252.07h-4.1v-16.16c0-.62.2-1.1.61-1.42s.94-.49,1.58-.49c.34,0,.68.04,1.04.11.36.07.65.17.86.29v17.68Z"/>
      <path class="cls-1" d="M464.85,240.53c1.04,2.36,2.15,4.76,3.33,7.18.38-.72.87-1.72,1.44-3.01.58-1.28,1.19-2.69,1.85-4.23s1.29-3.05,1.89-4.54c.29-.72.62-1.22.99-1.51s.86-.43,1.46-.43c.41,0,.86.08,1.35.23s.82.33.99.52c-.12.46-.39,1.18-.81,2.18s-.92,2.15-1.51,3.46c-.59,1.31-1.22,2.66-1.89,4.07-.67,1.4-1.34,2.77-2.02,4.1s-1.28,2.5-1.84,3.51h-4.03c-1.39-2.57-2.66-5.02-3.82-7.34s-2.06-4.27-2.74-5.83c-.31-.77-.56-1.42-.76-1.96s-.29-.92-.29-1.13c0-.55.19-.99.56-1.31s.87-.49,1.49-.49c.34,0,.68.04,1.04.11.36.07.61.16.76.25.65,1.75,1.49,3.81,2.54,6.17Z"/>
      <path class="cls-1" d="M488.88,252.57c-1.9,0-3.57-.4-5.02-1.19s-2.59-1.89-3.4-3.29c-.82-1.4-1.22-3.04-1.22-4.91s.42-3.57,1.26-5.02,2-2.59,3.47-3.42c1.48-.83,3.16-1.24,5.06-1.24,2.3,0,4.17.53,5.6,1.6,1.43,1.07,2.14,2.53,2.14,4.37s-.83,3.28-2.5,4.21c-1.67.94-4.31,1.4-7.94,1.4-.34,0-.75,0-1.24-.02-.49-.01-.98-.03-1.46-.05.19,1.25.83,2.24,1.93,2.99,1.09.74,2.47,1.12,4.12,1.12,1.8,0,3.43-.42,4.9-1.26l1.51,2.88c-.53.34-1.19.65-1.98.94-.79.29-1.64.51-2.56.67-.91.16-1.8.23-2.66.23ZM488.95,236.66c-1.58,0-2.89.51-3.91,1.53-1.02,1.02-1.55,2.36-1.6,4.01.41.02.84.04,1.3.04h1.8c4.15,0,6.23-.95,6.23-2.84,0-.84-.35-1.51-1.06-2-.71-.49-1.63-.74-2.75-.74Z"/>
      <path class="cls-1" d="M537.41,252.07h-4.1v-10.26c0-1.54-.35-2.69-1.04-3.46-.7-.77-1.71-1.15-3.02-1.15-1.42,0-2.5.44-3.26,1.31-.76.88-1.13,2.12-1.13,3.73v9.83h-4.1v-9.83c0-1.61-.37-2.85-1.1-3.73-.73-.88-1.81-1.31-3.22-1.31-1.32,0-2.35.4-3.08,1.19s-1.1,1.94-1.1,3.46v10.22h-4.1v-11.63c0-1.42.33-2.65.99-3.69.66-1.04,1.58-1.85,2.77-2.41,1.19-.56,2.57-.85,4.16-.85,3.12,0,5.39,1.09,6.8,3.28,1.42-2.18,3.65-3.28,6.7-3.28,1.56,0,2.93.28,4.1.85,1.18.56,2.09,1.36,2.75,2.39.66,1.03.99,2.26.99,3.67v11.66Z"/>
      <path class="cls-1" d="M558.79,244.76c0,2.4-.79,4.3-2.36,5.71-1.57,1.4-3.71,2.11-6.43,2.11s-4.82-.7-6.41-2.11c-1.58-1.4-2.38-3.31-2.38-5.71v-8.86c0-.62.2-1.1.61-1.42.41-.32.94-.49,1.58-.49.33,0,.68.04,1.04.11.36.07.65.17.86.29v9.47c0,3.34,1.56,5,4.68,5s4.68-1.67,4.68-5v-7.96c0-.62.2-1.1.61-1.42s.94-.49,1.58-.49c.34,0,.68.04,1.04.11.36.07.65.17.86.29v10.37Z"/>
      <path class="cls-1" d="M578.95,246.63c0,1.87-.76,3.33-2.29,4.37-1.52,1.04-3.53,1.57-6.03,1.57-1.13,0-2.3-.1-3.51-.31-1.21-.2-2.32-.48-3.31-.83s-1.76-.71-2.29-1.1l1.55-2.77c.77.48,1.82.9,3.17,1.26,1.34.36,2.74.54,4.18.54,2.83,0,4.25-.72,4.25-2.16,0-1.22-1.15-1.98-3.46-2.27l-3.67-.47c-1.82-.24-3.23-.79-4.21-1.66-.98-.86-1.48-2.06-1.48-3.6,0-1.87.73-3.29,2.2-4.27s3.59-1.46,6.37-1.46c1.46,0,2.76.13,3.89.4,1.13.26,2.02.62,2.66,1.06.65.44.97.95.97,1.53,0,.36-.13.73-.38,1.12s-.54.66-.88.83c-.31-.31-.83-.61-1.55-.88-.72-.28-1.54-.5-2.45-.68-.91-.18-1.82-.27-2.74-.27-1.27,0-2.26.19-2.97.56-.71.37-1.06.92-1.06,1.64,0,.55.25,1,.74,1.35.49.35,1.27.59,2.32.74l3.67.47c4.2.53,6.3,2.29,6.3,5.29Z"/>
      <path class="cls-1" d="M582.5,230.22c-.47-.48-.7-1.08-.7-1.8s.23-1.32.7-1.8c.47-.48,1.06-.72,1.78-.72s1.31.24,1.78.72c.47.48.7,1.08.7,1.8s-.23,1.32-.7,1.8c-.47.48-1.06.72-1.78.72s-1.31-.24-1.78-.72ZM586.33,252.07h-4.1v-16.16c0-.62.2-1.1.61-1.42.41-.32.94-.49,1.58-.49.34,0,.68.04,1.04.11s.65.17.86.29v17.68Z"/>
      <path class="cls-1" d="M590.85,238.1c.8-1.44,1.96-2.57,3.47-3.38,1.51-.82,3.31-1.22,5.4-1.22,1.2,0,2.29.14,3.26.41.97.28,1.72.65,2.25,1.13.53.46.79.96.79,1.51,0,.38-.13.77-.38,1.17-.25.4-.59.76-1.03,1.1-.6-.55-1.33-.98-2.18-1.28-.85-.3-1.76-.45-2.72-.45-1.75,0-3.16.52-4.21,1.57-1.06,1.04-1.58,2.49-1.58,4.34s.54,3.27,1.6,4.34c1.07,1.07,2.51,1.6,4.34,1.6,1.63,0,3.12-.41,4.46-1.22l1.73,3.06c-1.99,1.2-4.21,1.8-6.66,1.8-1.94,0-3.65-.39-5.11-1.17-1.46-.78-2.61-1.88-3.42-3.29s-1.22-3.08-1.22-5,.4-3.56,1.21-5Z"/>
      <path class="cls-1" d="M620.82,252.07h-4.1v-24.62c0-.62.2-1.1.61-1.42s.94-.49,1.58-.49c.34,0,.68.04,1.04.11s.65.17.86.29v26.14Z"/>
      <path class="cls-1" d="M625.12,230.22c-.47-.48-.7-1.08-.7-1.8s.23-1.32.7-1.8c.47-.48,1.06-.72,1.78-.72s1.31.24,1.78.72c.47.48.7,1.08.7,1.8s-.23,1.32-.7,1.8c-.47.48-1.06.72-1.78.72s-1.31-.24-1.78-.72ZM628.95,252.07h-4.1v-16.16c0-.62.2-1.1.61-1.42.41-.32.94-.49,1.58-.49.34,0,.68.04,1.04.11s.65.17.86.29v17.68Z"/>
      <path class="cls-1" d="M632.59,227.44c0-.62.2-1.1.61-1.42s.94-.49,1.58-.49c.34,0,.68.04,1.04.11.36.07.65.17.86.29v10.33c.67-.86,1.53-1.54,2.57-2.03s2.23-.74,3.55-.74c1.73,0,3.29.41,4.68,1.24,1.39.83,2.5,1.96,3.31,3.38.82,1.43,1.22,3.07,1.22,4.91s-.42,3.49-1.26,4.93c-.84,1.44-2,2.57-3.49,3.38s-3.22,1.22-5.18,1.22-3.62-.41-5.04-1.24-2.51-2.02-3.29-3.58c-.78-1.56-1.17-3.42-1.17-5.58v-14.72ZM646.23,238.75c-1.03-1.08-2.36-1.62-4-1.62s-2.97.54-4.01,1.62-1.57,2.5-1.57,4.25.52,3.17,1.57,4.25,2.38,1.62,4.01,1.62,2.96-.54,4-1.62,1.55-2.5,1.55-4.25-.52-3.17-1.55-4.25Z"/>
      <path class="cls-1" d="M655.12,240.44c0-2.18.68-3.89,2.03-5.11,1.36-1.22,3.23-1.84,5.63-1.84,1.63,0,2.89.24,3.78.72.89.48,1.33,1.09,1.33,1.84,0,.38-.1.77-.31,1.15-.21.38-.4.64-.59.76-1.06-.53-2.24-.79-3.56-.79-2.81,0-4.21,1.49-4.21,4.46v10.44h-4.1v-11.63Z"/>
      <path class="cls-1" d="M685.54,252c-1.25.17-2.6.31-4.05.41-1.45.11-2.77.16-3.94.16-2.98,0-5.25-.47-6.82-1.4-1.57-.94-2.36-2.46-2.36-4.57,0-1.87.68-3.31,2.03-4.32,1.36-1.01,3.56-1.51,6.61-1.51.7,0,1.48.02,2.34.07.86.05,1.56.11,2.09.18,0-1.46-.45-2.53-1.35-3.2-.9-.67-2.24-1.01-4.01-1.01-1.13,0-2.15.12-3.08.36-.92.24-1.59.54-2,.9-.26-.19-.49-.46-.68-.81-.19-.35-.29-.71-.29-1.1,0-.82.5-1.46,1.51-1.94,1.01-.48,2.5-.72,4.46-.72,3.14,0,5.52.64,7.13,1.93,1.61,1.28,2.41,3.2,2.41,5.74v10.84ZM673.7,248.92c.82.44,2.1.67,3.85.67.72,0,1.45-.03,2.2-.09.74-.06,1.32-.14,1.73-.23v-5.26c-.53-.12-1.22-.21-2.07-.27-.85-.06-1.6-.09-2.25-.09-1.75,0-2.97.26-3.65.77-.68.52-1.03,1.28-1.03,2.29s.41,1.77,1.22,2.21Z"/>
      <path class="cls-1" d="M689.39,240.44c0-2.18.68-3.89,2.03-5.11,1.36-1.22,3.23-1.84,5.63-1.84,1.63,0,2.89.24,3.78.72.89.48,1.33,1.09,1.33,1.84,0,.38-.1.77-.31,1.15-.21.38-.4.64-.59.76-1.06-.53-2.24-.79-3.56-.79-2.81,0-4.21,1.49-4.21,4.46v10.44h-4.1v-11.63Z"/>
      <path class="cls-1" d="M721.72,250.16c0,3.12-.83,5.48-2.48,7.07-1.66,1.6-4.02,2.39-7.09,2.39-1.25,0-2.54-.12-3.89-.36-1.34-.24-2.48-.54-3.42-.9l1.04-3.06c.43.19.98.37,1.66.52.67.16,1.37.28,2.11.36.73.08,1.42.13,2.07.13,1.94,0,3.43-.44,4.46-1.31,1.03-.88,1.55-2.26,1.55-4.16v-1.01c-.46.7-1.17,1.25-2.14,1.67-.97.42-2.13.63-3.47.63-1.56,0-2.94-.29-4.14-.88-1.2-.59-2.14-1.43-2.81-2.54s-1.01-2.4-1.01-3.89v-8.93c0-.62.2-1.1.59-1.42.4-.32.92-.49,1.57-.49.34,0,.68.04,1.04.11s.66.17.9.29v9.61c0,1.49.41,2.63,1.22,3.44.82.8,1.96,1.21,3.42,1.21s2.71-.44,3.51-1.31c.8-.88,1.21-2.12,1.21-3.73v-7.7c0-.62.2-1.1.59-1.42.4-.32.92-.49,1.57-.49.34,0,.68.04,1.04.11.36.07.66.17.9.29v15.77Z"/>
    </g>
  </g>
</svg>