<?xml version="1.0" encoding="utf-8"?>
<!-- Generator: Adobe Illustrator 28.3.0, SVG Export Plug-In . SVG Version: 6.00 Build 0)  -->
<svg version="1.1" id="Layer_1" xmlns="http://www.w3.org/2000/svg" xmlns:xlink="http://www.w3.org/1999/xlink" x="0px" y="0px"
	 viewBox="0 0 800 800" style="enable-background:new 0 0 800 800;" xml:space="preserve">
<style type="text/css">
	.st0{fill:#FFFFFF;stroke:#000000;stroke-width:66.6667;stroke-linejoin:round;stroke-miterlimit:133.3333;}
</style>
<path class="st0" d="M555.3,309.5c48,30,72,45,80.2,64.2c7.2,16.8,7.2,35.8,0,52.5c-8.2,19.2-32.2,34.2-80.2,64.2L329.9,631.3
	c-53.3,33.3-79.9,49.9-101.9,48.2c-19.2-1.5-36.7-11.3-48.2-26.7c-13.1-17.7-13.1-49.1-13.1-111.9V259.1c0-62.8,0-94.2,13.1-111.9
	c11.5-15.4,29-25.2,48.2-26.7c22-1.8,48.6,14.9,101.9,48.2L555.3,309.5z"/>
</svg>
